<?xml version="1.0" encoding="utf-8"?>
<!-- Generator: Adobe Illustrator 24.3.0, SVG Export Plug-In . SVG Version: 6.00 Build 0)  -->
<svg version="1.1" id="Layer_1" xmlns="http://www.w3.org/2000/svg" xmlns:xlink="http://www.w3.org/1999/xlink" x="0px" y="0px"
	 viewBox="0 0 477.97 280.83" style="enable-background:new 0 0 477.97 280.83;" xml:space="preserve">
<style type="text/css">
	.st0{fill:#FFFFFF;}
</style>
<g>
	<g>
		<path class="st0" d="M220.45,211.7l0.24-0.24c4.07,0,7-1.3,8.79-3.91c0,3.42-0.86,6.83-2.56,10.25c-1.71,3.42-4.07,6.39-7.08,8.91
			c-3.01,2.52-6.63,4.27-10.86,5.25c-1.79,0.49-3.74,0.73-5.86,0.73c-2.6,0-5.37-0.41-8.3-1.22c-5.21-1.3-10.78-4.11-16.72-8.42
			c-5.94-4.31-12.08-10.62-18.43-18.92l-5.86-7.81l-24.9-32.71c-1.3-1.63-3.01-3.13-5.13-4.52c-2.12-1.38-4.39-2.73-6.83-4.03
			c-3.09-1.63-5.86-2.85-8.3-3.66c-1.79-0.65-3.42-1.26-4.88-1.83s-2.77-1.02-3.91-1.34l-3.66-1.22h20.75v-0.24
			c0.81,0,1.59-0.04,2.32-0.12c0.73-0.08,1.51-0.2,2.32-0.37c0.65-0.32,1.14-0.49,1.46-0.49c0.16,0,0.28-0.04,0.37-0.12
			s0.2-0.12,0.37-0.12c1.3-0.32,2.28-0.65,2.93-0.98c0.16-0.16,0.32-0.24,0.49-0.24c0.16,0,0.41-0.08,0.73-0.24
			c0.65-0.32,1.22-0.57,1.71-0.73c7.65-4.07,13.75-10.25,18.31-18.55c2.12-3.91,3.74-8.14,4.88-12.69c1.14-4.56,1.71-9.36,1.71-14.4
			v-0.73c0-10.41-2.32-19.69-6.96-27.83c-4.64-8.14-10.62-14.07-17.94-17.82c-0.49-0.16-1.06-0.41-1.71-0.73
			c-4.39-1.95-8.95-2.93-13.67-2.93H93.29c-4.07,0-7.53,1.38-10.37,4.15c-2.85,2.77-4.35,6.18-4.52,10.25v123.26
			c0.16,4.07,1.67,7.49,4.52,10.25c2.85,2.77,6.3,4.15,10.37,4.15v4.39H24.7v-4.39c4.07,0,7.53-1.38,10.37-4.15
			c2.85-2.77,4.35-6.18,4.52-10.25V62.08c-0.16-4.07-1.67-7.49-4.52-10.25c-2.85-2.77-6.3-4.15-10.37-4.15v-4.39h104.96
			c8.95,0.16,17.29,1.67,25.02,4.52s14.48,6.71,20.26,11.59c5.78,4.88,10.29,10.54,13.55,16.96c3.25,6.43,4.88,13.38,4.88,20.87
			c0,10.09-2.85,19.16-8.54,27.22c-5.7,8.05-13.26,14.44-22.7,19.16l18.79,24.65h0.24l27.09,35.64
			C212.31,209.1,216.38,211.7,220.45,211.7z"/>
		<path class="st0" d="M285.12,36.85c-2.28,1.82-4.07,4.33-5.37,7.52c-1.14,2.73-1.87,6.04-2.2,9.91v119.93
			c0,1.82-0.04,3.65-0.12,5.47c-0.08,1.82-0.2,3.64-0.37,5.47c-1.63,13.89-6.02,26.2-13.18,36.9c-1.14,2.05-2.44,3.87-3.9,5.47
			c-6.35,8.2-14.04,14.69-23.07,19.48c-9.03,4.78-18.92,7.18-29.66,7.18c-1.3,0-2.52-0.06-3.66-0.17c-1.14-0.11-2.28-0.17-3.42-0.17
			c5.53-2.05,10.66-5.24,15.38-9.57c4.72-4.33,8.79-9.57,12.2-15.72c3.42-6.15,6.1-12.98,8.05-20.5c1.95-7.52,2.93-15.49,2.93-23.92
			V54.28c-0.16-5.7-1.67-10.48-4.51-14.35c-2.85-3.87-6.39-5.81-10.62-5.81v-6.15h69.08v6.15
			C289.92,34.12,287.39,35.03,285.12,36.85z"/>
		<path class="st0" d="M417.89,47.8c7.81,2.85,14.56,6.71,20.26,11.59c5.7,4.88,10.21,10.54,13.55,16.96s5,13.38,5,20.87
			c0,7.49-1.67,14.48-5,20.99c-3.34,6.51-7.85,12.2-13.55,17.09c-5.7,4.88-12.45,8.75-20.26,11.59c-7.81,2.85-16.19,4.35-25.14,4.52
			h-3.66c-4.23-0.16-8.1-0.49-11.59-0.98c-3.5-0.49-6.63-0.98-9.4-1.46c-3.09-0.65-6.02-1.3-8.79-1.95h18.06
			c2.44,0,4.88-0.24,7.32-0.73c0.32-0.16,0.65-0.24,0.97-0.24c0.16,0,0.41-0.08,0.73-0.24c0.16,0,0.29-0.04,0.37-0.12
			c0.08-0.08,0.2-0.12,0.37-0.12c0.33-0.16,0.98-0.41,1.95-0.73c0.32,0,0.57-0.08,0.73-0.24c0.16,0,0.57-0.16,1.22-0.49
			c0.32-0.16,0.61-0.28,0.85-0.37c0.24-0.08,0.53-0.2,0.86-0.37c7.32-3.74,13.3-9.72,17.94-17.94c4.64-8.22,7.04-17.45,7.2-27.7
			v-0.98c-0.16-10.25-2.56-19.44-7.2-27.58c-4.64-8.14-10.62-14.07-17.94-17.82c-0.32-0.32-0.61-0.53-0.86-0.61
			c-0.24-0.08-0.53-0.2-0.85-0.37c-2.11-0.81-4.31-1.51-6.59-2.07c-2.28-0.57-4.64-0.85-7.08-0.85h-20.75
			c-4.23,0-7.77,1.42-10.62,4.27c-2.85,2.85-4.35,6.31-4.51,10.37v123.26c0.16,4.07,1.67,7.49,4.51,10.25
			c2.85,2.77,6.39,4.15,10.62,4.15v4.39h-68.83v-4.39c4.07,0,7.53-1.38,10.37-4.15c2.85-2.77,4.35-6.18,4.52-10.25V62.08
			c-0.16-4.07-1.67-7.53-4.52-10.37c-2.85-2.85-6.3-4.27-10.37-4.27v-4.15h104.96C401.7,43.45,410.08,44.96,417.89,47.8z"/>
	</g>
	<g>
		<path class="st0" d="M286.9,212.56h6.79c8.08,0,9.11,4.59,9.11,10.05v13.57c0,5.28-0.89,10.75-9.36,10.75h-6.54V212.56z
			 M290.88,243.75h2.26c4.54,0,5.59-2.35,5.59-6.85v-14.73c0-3.97-0.78-6.41-5.56-6.41h-2.29V243.75z"/>
		<path class="st0" d="M327.82,230.28h-8.39v13.28h9.53l-0.54,3.36h-12.97v-34.37h12.85v3.39h-8.87v10.98h8.39V230.28z"/>
		<path class="st0" d="M343.02,237.25v1.99c0,3.24,1.22,4.97,3.84,4.97c2.68,0,3.74-1.78,3.74-5.55c0-4.02-0.96-5.58-4.91-8.4
			c-4-2.88-6.03-4.61-6.03-9.68c0-4.35,1.42-8.53,7.29-8.5c5.57,0.03,7.04,3.43,7.04,7.8v1.59h-3.96v-1.5c0-2.85-0.61-4.7-3.17-4.7
			c-2.57,0-3.23,2.07-3.23,4.76c0,3.19,0.69,4.41,4.13,6.79c5.19,3.61,6.84,5.62,6.84,11.32c0,4.83-1.5,9.23-7.82,9.23
			c-6.04,0-7.75-3.63-7.75-8.16v-1.97H343.02z"/>
		<path class="st0" d="M370.49,212.56v34.37h-3.98v-34.37H370.49z"/>
		<path class="st0" d="M398.82,246.93h-3.16c-0.11-0.56-0.22-2.2-0.24-2.97c-0.94,2.55-3.07,3.43-5.51,3.43
			c-5.17,0-6.88-3.51-6.88-9v-17.19c0-5.64,2.48-9.09,8-9.09c6.52,0,7.71,4.23,7.71,8.6v0.88h-3.98v-0.96c0-2.4-0.31-5.18-3.76-5.18
			c-2.6,0-3.91,1.51-3.91,5.42v17.71c0,3.39,0.96,5.55,3.69,5.55c3.43,0,4.02-2.91,4.02-7.3v-5.48h-4.16v-3.2h8.17V246.93z"/>
		<path class="st0" d="M411.72,246.93v-34.37h4.75c2.02,6.36,7.22,24.38,7.83,27.18h0.09c-0.22-4.62-0.28-9.46-0.28-15.06v-12.12
			h3.75v34.37h-4.59c-1.99-6.45-7.35-25.36-8.06-28.1h-0.05c0.25,4.14,0.35,9.63,0.35,15.83v12.27H411.72z"/>
		<path class="st0" d="M443.47,237.25v1.99c0,3.24,1.22,4.97,3.84,4.97c2.68,0,3.74-1.78,3.74-5.55c0-4.02-0.96-5.58-4.91-8.4
			c-4-2.88-6.03-4.61-6.03-9.68c0-4.35,1.42-8.53,7.29-8.5c5.57,0.03,7.04,3.43,7.04,7.8v1.59h-3.96v-1.5c0-2.85-0.61-4.7-3.17-4.7
			c-2.57,0-3.23,2.07-3.23,4.76c0,3.19,0.69,4.41,4.13,6.79c5.19,3.61,6.84,5.62,6.84,11.32c0,4.83-1.5,9.23-7.82,9.23
			c-6.04,0-7.75-3.63-7.75-8.16v-1.97H443.47z"/>
	</g>
</g>
</svg>
